<?xml version="1.0" encoding="UTF-8"?>
<svg xmlns="http://www.w3.org/2000/svg" xmlns:xlink="http://www.w3.org/1999/xlink" width="86pt" height="86pt" viewBox="0 0 86 86" version="1.1">
<g id="surface1">
<path style=" stroke:none;fill-rule:nonzero;fill:rgb(0%,0%,0%);fill-opacity:1;" d="M 43 16.125 C 24.246094 16.125 7.988281 27.046875 0 43 C 7.988281 58.953125 24.246094 69.875 43 69.875 C 61.753906 69.875 78.011719 58.953125 86 43 C 78.011719 27.046875 61.753906 16.125 43 16.125 Z M 64.203125 30.378906 C 69.253906 33.601562 73.535156 37.917969 76.753906 43 C 73.535156 48.082031 69.253906 52.398438 64.203125 55.621094 C 57.851562 59.671875 50.519531 61.8125 43 61.8125 C 35.476562 61.8125 28.148438 59.671875 21.796875 55.621094 C 16.746094 52.398438 12.464844 48.082031 9.246094 43 C 12.464844 37.917969 16.746094 33.601562 21.796875 30.378906 C 22.128906 30.167969 22.460938 29.964844 22.792969 29.765625 C 21.957031 32.058594 21.5 34.535156 21.5 37.121094 C 21.5 48.996094 31.125 58.621094 43 58.621094 C 54.875 58.621094 64.5 48.996094 64.5 37.121094 C 64.5 34.535156 64.042969 32.058594 63.207031 29.765625 C 63.539062 29.964844 63.871094 30.167969 64.203125 30.378906 Z M 43 34.433594 C 43 38.886719 39.390625 42.496094 34.9375 42.496094 C 30.484375 42.496094 26.875 38.886719 26.875 34.433594 C 26.875 29.980469 30.484375 26.371094 34.9375 26.371094 C 39.390625 26.371094 43 29.980469 43 34.433594 Z M 43 34.433594 "/>
</g>
</svg>
